#define file.xbm_width 12
#define file.xbm_height 12
static unsigned char file.xbm_bits[] = {
   0xfe, 0x00, 0x02, 0x03, 0x02, 0x02, 0x02, 0x02, 0x02, 0x02, 0x02, 0x02,
   0x02, 0x02, 0x02, 0x02, 0x02, 0x02, 0x02, 0x02, 0x02, 0x02, 0xfe, 0x03};
