#define folder.xbm_width 16
#define folder.xbm_height 10
static unsigned char folder.xbm_bits[] = {
   0xfc, 0x00, 0xfe, 0x07, 0xff, 0x0f, 0xff, 0x0f, 0xff, 0x0f, 0xff, 0x0f,
   0xff, 0x0f, 0xff, 0x0f, 0xff, 0x0f, 0xff, 0x07};
