#define openfolder.xbm_width 16
#define openfolder.xbm_height 10
static unsigned char openfolder.xbm_bits[] = {
   0xfc, 0x00, 0x02, 0x07, 0x01, 0x08, 0xc1, 0xff, 0xe1, 0xff, 0xf1, 0x7f,
   0xf9, 0x3f, 0xfd, 0x1f, 0xff, 0x0f, 0xff, 0x07};
